<?xml version="1.0" standalone="no"?>
<!DOCTYPE svg PUBLIC "-//W3C//DTD SVG 20010904//EN"
 "http://www.w3.org/TR/2001/REC-SVG-20010904/DTD/svg10.dtd">
<svg version="1.0" xmlns="http://www.w3.org/2000/svg"
 width="840.000000pt" height="840.000000pt" viewBox="0 0 840.000000 840.000000"
 preserveAspectRatio="xMidYMid meet">
<metadata>
Created by potrace 1.14, written by Peter Selinger 2001-2017
</metadata>
<g transform="translate(0.000000,840.000000) scale(0.100000,-0.100000)"
fill="#000000" stroke="none">
<path d="M4209 7066 c-2 -2 -43 -7 -91 -11 -49 -3 -98 -8 -110 -11 -13 -3 -36
-7 -53 -9 -47 -5 -128 -17 -145 -20 -8 -2 -76 -15 -150 -30 -74 -15 -171 -35
-215 -45 -45 -10 -92 -21 -105 -24 -14 -3 -36 -8 -50 -11 -14 -3 -38 -8 -55
-11 -16 -3 -36 -7 -44 -10 -19 -6 -203 -48 -261 -59 -14 -3 -72 -14 -130 -25
-58 -11 -127 -23 -155 -26 -27 -3 -56 -7 -64 -10 -8 -2 -42 -7 -75 -10 -34 -3
-72 -7 -86 -10 -14 -3 -108 -7 -210 -10 -102 -3 -200 -10 -219 -16 -123 -39
-220 -156 -295 -353 -49 -129 -49 -129 -51 -140 -2 -5 -12 -41 -23 -80 -19
-63 -36 -133 -48 -190 -2 -11 -8 -40 -14 -65 -11 -49 -19 -89 -26 -132 -2 -16
-6 -43 -9 -60 -3 -18 -8 -49 -10 -68 -3 -19 -8 -51 -11 -70 -3 -19 -7 -60 -10
-90 -2 -30 -7 -71 -10 -90 -3 -19 -7 -55 -9 -80 -3 -47 -12 -141 -21 -225 -3
-27 -7 -70 -9 -94 -2 -24 -7 -47 -12 -51 -4 -4 -53 -26 -108 -48 -55 -22 -138
-58 -185 -80 -47 -21 -92 -42 -100 -45 -8 -4 -49 -25 -90 -47 -254 -138 -442
-272 -597 -427 -79 -78 -193 -222 -193 -242 0 -5 -4 -11 -9 -13 -12 -4 -67
-116 -90 -180 -49 -141 -55 -178 -55 -318 0 -197 31 -321 126 -505 34 -66 114
-192 136 -214 7 -8 21 -25 30 -39 20 -31 101 -119 192 -209 166 -165 473 -384
725 -517 22 -11 42 -23 45 -26 22 -22 406 -195 580 -262 239 -91 628 -210 799
-244 14 -3 28 -7 32 -9 4 -3 24 -7 45 -11 22 -3 57 -10 79 -16 22 -6 49 -12
60 -13 11 -1 31 -5 45 -8 14 -4 42 -9 64 -12 21 -3 41 -7 45 -9 3 -2 33 -7 66
-11 32 -3 62 -8 65 -10 3 -1 28 -5 55 -9 28 -3 59 -8 70 -10 71 -14 253 -32
520 -52 137 -11 795 -11 985 -1 215 12 353 22 430 32 19 2 69 7 110 10 41 3
82 8 90 10 8 2 40 7 70 11 30 3 64 7 75 9 11 1 45 5 75 9 30 4 80 11 110 16
30 5 73 12 95 15 41 6 70 11 115 21 14 3 39 7 57 10 18 2 64 11 102 19 39 8
83 17 98 20 45 8 64 12 153 34 47 11 96 23 110 25 14 3 25 5 25 6 0 1 166 47
199 55 133 32 506 164 651 231 33 15 62 28 65 29 12 3 107 46 120 54 8 6 51
29 95 52 44 22 99 54 123 70 24 16 45 29 48 29 5 0 134 92 194 140 47 37 177
164 220 215 70 84 157 249 174 330 4 17 9 41 12 55 13 63 15 172 4 240 -11 73
-16 100 -20 110 -1 3 -3 10 -4 15 -10 53 -117 251 -180 335 -89 117 -241 270
-367 370 -24 19 -48 38 -54 42 -132 104 -363 255 -533 350 -32 17 -77 42 -102
56 -91 51 -389 200 -393 196 -3 -3 -62 156 -72 196 -7 30 -95 259 -158 415
-73 181 -192 440 -226 494 -8 13 -16 30 -17 38 -2 8 -9 22 -16 31 -8 10 -26
40 -41 68 -24 46 -83 148 -107 184 -81 124 -137 208 -147 220 -6 8 -40 51 -74
95 -281 358 -610 592 -975 694 -60 16 -127 33 -148 36 -21 3 -48 8 -60 10 -64
15 -475 33 -487 21z"/>
</g>
</svg>
