<?xml version="1.0" standalone="no"?>
<!DOCTYPE svg PUBLIC "-//W3C//DTD SVG 20010904//EN"
 "http://www.w3.org/TR/2001/REC-SVG-20010904/DTD/svg10.dtd">
<svg version="1.0" xmlns="http://www.w3.org/2000/svg"
 width="1024.000000pt" height="1024.000000pt" viewBox="0 0 1024.000000 1024.000000"
 preserveAspectRatio="xMidYMid meet">
<metadata>
Created by potrace 1.14, written by Peter Selinger 2001-2017
</metadata>
<g transform="translate(0.000000,1024.000000) scale(0.100000,-0.100000)"
fill="#000000" stroke="none">
<path d="M2952 8891 c-9 -5 -14 -50 -17 -152 -2 -79 -4 -148 -4 -154 -1 -6
-60 -9 -161 -8 -142 2 -160 0 -164 -15 -3 -9 -5 -79 -3 -155 l2 -137 -501 0
c-448 0 -503 -2 -508 -16 -3 -9 -6 -125 -6 -259 l0 -243 -34 9 c-35 10 -182 6
-193 -4 -3 -4 -14 -2 -23 3 -13 7 -19 6 -23 -3 -3 -7 -4 -804 -4 -1770 1
-1507 3 -1759 15 -1770 10 -7 55 -11 138 -9 68 1 124 -1 125 -5 0 -5 1 -183 1
-398 1 -214 3 -395 5 -401 3 -7 56 -11 163 -10 87 1 158 -1 158 -4 0 -3 1 -9
2 -15 1 -5 1 -28 1 -50 -1 -79 -1 -151 2 -187 1 -21 -1 -38 -5 -38 -4 0 -5 -6
-2 -14 9 -23 10 -106 1 -106 -5 0 -6 -4 -3 -8 3 -5 6 -28 7 -53 1 -24 4 -49 6
-55 3 -7 39 -12 96 -14 51 -1 121 -3 157 -4 36 -1 70 2 76 6 14 10 14 8 17
-154 1 -75 5 -139 8 -143 4 -3 77 -7 163 -8 95 -1 156 -6 157 -12 0 -5 0 -117
0 -248 -1 -234 4 -280 32 -276 7 1 77 1 157 0 l145 -1 2 -152 c1 -111 5 -153
15 -159 7 -5 47 -9 88 -9 41 0 186 -2 323 -3 144 -1 247 2 247 7 0 5 3 6 6 3
4 -4 6 -77 6 -164 -1 -87 1 -166 4 -175 4 -15 28 -16 249 -15 135 1 245 -2
245 -6 0 -5 5 -5 11 -1 6 3 111 7 232 8 l222 2 -3 -164 c-2 -103 1 -169 8
-177 14 -17 581 -18 592 -1 6 8 8 8 8 -1 0 -17 355 -14 378 3 13 9 16 39 19
168 3 125 1 156 -9 150 -9 -5 -9 -2 1 9 13 16 36 17 260 13 349 -7 672 -8 678
-3 2 3 5 83 6 179 1 152 3 175 17 172 40 -9 582 -9 587 0 4 5 6 78 6 163 l-1
153 284 0 c220 0 284 3 284 13 1 6 2 126 3 266 l2 254 130 0 c72 0 137 4 146
8 14 7 16 29 16 149 0 77 3 143 5 146 8 7 94 7 107 0 6 -4 11 -4 11 1 0 4 47
7 105 6 69 -1 107 2 112 10 10 17 12 489 2 510 -11 20 -25 18 151 21 74 1 142
3 150 4 13 2 15 55 15 412 -1 398 0 410 18 404 15 -5 17 -3 11 7 -6 11 -5 12
7 2 16 -13 252 -13 266 0 9 10 10 197 0 204 -4 2 -3 12 1 21 10 20 10 262 0
278 -4 6 -4 14 0 18 12 13 10 286 -2 286 -8 0 -8 3 -1 8 15 10 15 612 1 612
-8 0 -8 3 -1 8 14 9 15 233 1 225 -5 -4 -6 -1 0 8 12 19 13 239 0 232 -5 -4
-6 -1 0 8 12 19 13 239 1 232 -6 -4 -7 -1 -1 8 13 20 12 219 -1 219 -6 0 -6 3
1 8 12 8 14 250 2 268 -4 6 -4 14 0 18 12 13 10 310 -2 318 -8 6 -8 8 0 8 12
0 14 524 1 536 -4 5 -15 10 -25 12 -32 8 -217 9 -237 2 -11 -4 -24 -3 -30 4
-7 7 -12 101 -13 250 -1 132 -5 243 -10 248 -10 10 -922 15 -922 5 0 -5 -4 -6
-9 -3 -4 3 -7 68 -6 145 2 76 -1 145 -6 152 -7 11 -62 14 -284 14 -151 0 -275
2 -275 5 -1 3 -3 70 -6 150 -4 112 -8 148 -20 156 -17 13 -4141 18 -4162 5z"/>
</g>
</svg>
